<svg xmlns="http://www.w3.org/2000/svg" width="1060" height="300" viewBox="0 0 1060 300" role="img" aria-labelledby="title">
  <title id="title">Conviction logo</title>
  <defs>
    <linearGradient id="brand" x1="0" y1="0" x2="1" y2="1">
      <stop offset="0" stop-color="#5e3766"/>
      <stop offset="1" stop-color="#3b1d44"/>
    </linearGradient>
    <filter id="shadow" x="-25%" y="-25%" width="150%" height="160%">
      <feDropShadow dx="0" dy="4" stdDeviation="4" flood-color="#4b2a52" flood-opacity=".12"/>
    </filter>
  </defs>
  <rect x="50" y="60" width="180" height="180" rx="58" fill="url(#brand)" filter="url(#shadow)" transform="rotate(-4 140 150)"/>
  <path d="M53.875 6.088 L49.429 3.110 L66.480 20.261 L68.134 20.261 L58.586 1.139 Q53.220 -0.159 48.587 -0.755 Q43.955 -1.351 38.885 -1.351 Q27.490 -1.351 20.173 2.139 Q12.856 5.628 9.354 11.817 Q5.851 18.006 5.851 26.048 Q5.851 33.739 8.219 40.883 Q10.587 48.028 15.045 54.097 Q19.504 60.166 25.841 64.692 Q32.179 69.218 40.119 71.749 Q48.059 74.281 57.373 74.281 Q60.539 74.281 63.517 74.011 Q66.495 73.740 69.415 73.191 Q72.335 72.642 75.230 71.781 L66.918 71.199 L76.233 76.543 L76.962 76.543 L74.520 48.579 L72.749 48.579 L66.906 68.801 L69.763 63.218 Q66.836 67.714 63.540 69.230 Q60.245 70.745 56.304 70.745 Q50.134 70.745 44.997 68.145 Q39.860 65.545 35.838 61.017 Q31.816 56.490 29.004 50.596 Q26.192 44.702 24.738 38.014 Q23.284 31.326 23.284 24.533 Q23.284 17.091 25.311 12.137 Q27.338 7.183 31.030 4.713 Q34.722 2.242 39.689 2.242 Q43.381 2.242 47.015 3.157 Q50.649 4.071 53.875 6.088 Z" fill="#ffffff" transform="translate(94.593 190.596) scale(1 -1)"/>
  <path d="M56.895 1.933 Q60.988 1.933 64.905 3.345 Q68.822 4.758 72.555 7.882 L69.685 5.155 L82.558 25.040 L84.445 25.040 L79.376 1.757 Q72.815 -0.085 67.006 -0.782 Q61.197 -1.478 54.259 -1.478 Q43.391 -1.478 34.358 1.410 Q25.325 4.298 18.711 10.084 Q12.097 15.870 8.497 24.466 Q4.897 33.062 4.897 44.443 Q4.897 57.610 11.012 67.569 Q17.127 77.529 28.009 83.119 Q38.891 88.708 53.252 88.708 Q58.522 88.708 62.991 88.150 Q67.459 87.592 72.790 86.372 L68.135 85.123 L76.259 91.197 L77.164 91.197 L83.300 59.169 L81.465 58.728 L67.501 81.154 L71.441 76.497 Q65.993 81.236 61.284 83.039 Q56.574 84.842 51.533 84.842 Q46.246 84.842 41.602 82.902 Q36.957 80.962 33.434 76.602 Q29.911 72.242 27.910 65.009 Q25.910 57.776 25.910 47.154 Q25.910 36.373 28.362 27.977 Q30.815 19.580 35.121 13.776 Q39.427 7.972 45.020 4.952 Q50.613 1.933 56.895 1.933 Z M123.679 2.110 Q128.251 2.110 131.177 5.104 Q134.104 8.097 135.488 14.314 Q136.872 20.531 136.872 30.137 Q136.872 40.138 135.531 46.834 Q134.191 53.530 131.291 56.929 Q128.391 60.327 123.734 60.327 Q119.162 60.327 116.248 57.334 Q113.335 54.341 111.938 48.137 Q110.541 41.933 110.541 32.327 Q110.541 22.360 111.881 15.634 Q113.222 8.908 116.122 5.509 Q119.022 2.110 123.679 2.110 Z M123.143 -1.478 Q114.071 -1.478 106.985 2.670 Q99.899 6.818 95.834 14.168 Q91.769 21.519 91.769 31.112 Q91.769 40.809 96.055 48.207 Q100.341 55.604 107.704 59.773 Q115.067 63.942 124.271 63.942 Q133.526 63.942 140.594 59.808 Q147.662 55.673 151.666 48.327 Q155.669 40.981 155.669 31.352 Q155.669 21.655 151.310 14.244 Q146.950 6.834 139.583 2.678 Q132.215 -1.478 123.143 -1.478 Z M187.505 50.572 L187.505 3.684 L194.470 1.802 L194.470 0.000 L162.463 0.000 L162.463 1.802 L169.711 3.762 L169.711 49.164 Q168.710 50.111 166.859 51.821 Q165.008 53.531 161.791 56.076 L161.791 57.562 L186.667 64.329 L187.505 64.329 Z M202.629 1.802 L209.627 3.684 L209.627 41.613 Q209.627 45.210 208.478 47.476 Q207.329 49.743 204.997 50.817 Q202.664 51.892 198.985 51.892 Q195.355 51.892 191.925 50.904 Q188.495 49.916 185.524 48.487 L185.067 49.664 Q189.799 54.238 193.216 57.025 Q196.633 59.811 199.353 61.252 Q202.072 62.692 204.667 63.188 Q207.262 63.684 210.396 63.684 Q219.026 63.684 223.224 58.960 Q227.421 54.237 227.421 44.771 L227.421 3.762 L234.644 1.802 L234.644 0.000 L202.629 0.000 Z M302.080 58.733 L278.136 -0.913 L269.127 -0.913 L241.659 58.056 L234.729 60.528 L234.729 62.464 L269.335 62.464 L269.335 60.451 L261.526 58.436 L282.109 10.909 L278.856 9.875 L297.097 58.751 L289.357 60.451 L289.357 62.464 L308.719 62.464 L308.719 60.451 Z M327.339 71.253 Q322.772 71.253 320.119 74.225 Q317.465 77.197 317.465 81.051 Q317.465 84.827 320.119 87.525 Q322.772 90.223 327.339 90.223 Q331.932 90.223 334.476 87.525 Q337.020 84.827 337.020 81.051 Q337.020 77.197 334.476 74.225 Q331.932 71.253 327.339 71.253 Z M337.031 64.329 L337.031 51.840 L337.031 3.684 L343.995 1.802 L343.995 0.000 L311.989 0.000 L311.989 1.802 L319.237 3.762 L319.237 49.164 Q318.566 49.772 317.418 50.742 Q316.270 51.713 314.738 53.057 Q313.207 54.401 311.316 56.076 L311.316 57.562 L336.192 64.329 Z M384.057 63.942 Q391.206 63.942 395.552 62.425 Q399.898 60.908 401.849 58.559 Q403.799 56.210 403.799 53.649 Q403.799 51.499 402.803 49.889 Q401.808 48.280 400.177 47.406 Q398.546 46.532 396.542 46.532 Q395.951 46.532 394.707 47.915 Q393.463 49.298 391.735 51.321 Q390.008 53.345 387.910 55.372 Q385.812 57.399 383.548 58.783 Q381.284 60.166 378.992 60.166 Q375.496 60.166 372.817 58.070 Q370.138 55.973 368.643 51.309 Q367.148 46.644 367.148 38.908 Q367.148 28.721 369.420 22.488 Q371.692 16.256 376.101 13.457 Q380.510 10.659 386.904 10.659 Q391.939 10.659 396.078 12.418 Q400.217 14.177 403.904 18.351 L405.182 17.292 Q401.220 10.270 397.207 6.158 Q393.193 2.046 388.779 0.284 Q384.364 -1.478 379.064 -1.478 Q370.559 -1.478 364.002 2.206 Q357.444 5.891 353.734 12.941 Q350.023 19.990 350.023 30.083 Q350.023 37.403 352.609 43.585 Q355.195 49.766 359.850 54.332 Q364.504 58.898 370.691 61.420 Q376.879 63.942 384.057 63.942 Z M434.883 17.766 Q434.883 13.563 437.487 11.469 Q440.091 9.376 444.934 9.376 Q447.695 9.376 450.752 9.812 Q453.810 10.249 457.921 11.356 L457.921 8.976 Q451.756 4.845 447.602 2.570 Q443.449 0.295 440.249 -0.609 Q437.049 -1.514 433.710 -1.514 Q428.888 -1.514 425.161 0.344 Q421.433 2.202 419.287 6.118 Q417.141 10.035 417.141 16.199 L417.141 52.018 L408.282 58.560 L408.282 59.829 Q408.944 60.256 410.836 61.315 Q412.729 62.375 415.402 63.926 Q418.075 65.477 421.219 67.306 Q424.363 69.136 427.653 71.063 Q430.943 72.989 433.946 74.758 L434.883 74.758 L434.883 60.604 Z M428.230 53.988 L428.230 62.464 L455.902 62.464 L454.745 53.988 Z M475.785 71.253 Q471.219 71.253 468.565 74.225 Q465.912 77.197 465.912 81.051 Q465.912 84.827 468.565 87.525 Q471.219 90.223 475.785 90.223 Q480.378 90.223 482.923 87.525 Q485.467 84.827 485.467 81.051 Q485.467 77.197 482.923 74.225 Q480.378 71.253 475.785 71.253 Z M485.477 64.329 L485.477 51.840 L485.477 3.684 L492.442 1.802 L492.442 0.000 L460.435 0.000 L460.435 1.802 L467.684 3.762 L467.684 49.164 Q467.013 49.772 465.865 50.742 Q464.716 51.713 463.185 53.057 Q461.653 54.401 459.762 56.076 L459.762 57.562 L484.639 64.329 Z M530.335 2.110 Q534.907 2.110 537.833 5.104 Q540.760 8.097 542.144 14.314 Q543.528 20.531 543.528 30.137 Q543.528 40.138 542.187 46.834 Q540.847 53.530 537.947 56.929 Q535.047 60.327 530.390 60.327 Q525.818 60.327 522.904 57.334 Q519.990 54.341 518.594 48.137 Q517.197 41.933 517.197 32.327 Q517.197 22.360 518.537 15.634 Q519.878 8.908 522.778 5.509 Q525.678 2.110 530.335 2.110 Z M529.799 -1.478 Q520.727 -1.478 513.641 2.670 Q506.555 6.818 502.490 14.168 Q498.425 21.519 498.425 31.112 Q498.425 40.809 502.711 48.207 Q506.997 55.604 514.360 59.773 Q521.723 63.942 530.927 63.942 Q540.181 63.942 547.250 59.808 Q554.318 55.673 558.322 48.327 Q562.325 40.981 562.325 31.352 Q562.325 21.655 557.966 14.244 Q553.606 6.834 546.239 2.678 Q538.871 -1.478 529.799 -1.478 Z M594.161 50.572 L594.161 3.684 L601.126 1.802 L601.126 0.000 L569.119 0.000 L569.119 1.802 L576.367 3.762 L576.367 49.164 Q575.366 50.111 573.515 51.821 Q571.664 53.531 568.447 56.076 L568.447 57.562 L593.323 64.329 L594.161 64.329 Z M609.285 1.802 L616.283 3.684 L616.283 41.613 Q616.283 45.210 615.134 47.476 Q613.985 49.743 611.653 50.817 Q609.320 51.892 605.641 51.892 Q602.011 51.892 598.581 50.904 Q595.151 49.916 592.180 48.487 L591.723 49.664 Q596.455 54.238 599.872 57.025 Q603.289 59.811 606.009 61.252 Q608.728 62.692 611.323 63.188 Q613.918 63.684 617.052 63.684 Q625.682 63.684 629.880 58.960 Q634.077 54.237 634.077 44.771 L634.077 3.762 L641.300 1.802 L641.300 0.000 L609.285 0.000 Z" fill="#2a1a2e" transform="translate(275.901 194.842) scale(1 -1)"/>
</svg>